<svg width="1440" height="159" viewBox="0 0 1440 159" fill="none" xmlns="http://www.w3.org/2000/svg">
<g opacity="0.6" filter="url(#filter0_f)">
<path d="M578.694 51.98H588.844V100H578.694V51.98ZM610.496 60.73H595.656V51.98H635.486V60.73H620.646V100H610.496V60.73ZM663.859 100.84C648.366 100.84 640.619 92.5567 640.619 75.99C640.619 67.6833 642.649 61.4767 646.709 57.37C650.769 53.2167 656.486 51.14 663.859 51.14C667.919 51.14 671.559 51.84 674.779 53.24C678.046 54.5933 680.612 56.6933 682.479 59.54C684.392 62.34 685.349 65.77 685.349 69.83H674.919C674.919 66.7033 673.916 64.2533 671.909 62.48C669.902 60.66 667.289 59.75 664.069 59.75C659.682 59.75 656.416 61.0567 654.269 63.67C652.122 66.2833 651.049 70.04 651.049 74.94V77.04C651.049 87.1667 655.389 92.23 664.069 92.23C667.476 92.23 670.182 91.3433 672.189 89.57C674.242 87.7967 675.269 85.3467 675.269 82.22H685.349C685.349 86.3267 684.416 89.78 682.549 92.58C680.682 95.3333 678.139 97.41 674.919 98.81C671.699 100.163 668.012 100.84 663.859 100.84ZM693.586 51.98H703.736V71.02H724.596V51.98H734.746V100H724.596V79.77H703.736V100H693.586V51.98ZM744.804 51.98H754.954V100H744.804V51.98ZM764.986 51.98H774.856L793.336 78.09C793.896 78.8833 794.83 80.4467 796.136 82.78L796.486 82.57L796.276 78.51V51.98H806.146V100H796.276L777.726 73.68C776.84 72.42 775.93 70.88 774.996 69.06L774.646 69.27C774.786 71.2767 774.856 72.6767 774.856 73.47V100H764.986V51.98ZM837.694 100.84C830.274 100.84 824.534 98.81 820.474 94.75C816.461 90.69 814.454 84.4367 814.454 75.99C814.454 67.73 816.601 61.5233 820.894 57.37C825.187 53.2167 831.254 51.14 839.094 51.14C843.247 51.14 847.027 51.7933 850.434 53.1C853.887 54.36 856.617 56.2967 858.624 58.91C860.677 61.4767 861.704 64.6267 861.704 68.36H851.204C851.204 65.7467 850.037 63.67 847.704 62.13C845.417 60.5433 842.664 59.75 839.444 59.75C834.544 59.75 830.881 61.0567 828.454 63.67C826.074 66.2833 824.884 70.04 824.884 74.94V77.04C824.884 82.1733 825.981 86 828.174 88.52C830.414 90.9933 833.821 92.23 838.394 92.23C842.174 92.23 845.301 91.3433 847.774 89.57C850.247 87.75 851.507 85.3 851.554 82.22H836.994V73.89H861.704V100H854.704L853.794 94.68C851.554 96.8267 849.197 98.39 846.724 99.37C844.251 100.35 841.241 100.84 837.694 100.84Z" fill="#F2C94C"/>
</g>
<g opacity="0.6" filter="url(#filter1_f)">
<path d="M578.694 51.98H588.844V100H578.694V51.98ZM610.496 60.73H595.656V51.98H635.486V60.73H620.646V100H610.496V60.73ZM663.859 100.84C648.366 100.84 640.619 92.5567 640.619 75.99C640.619 67.6833 642.649 61.4767 646.709 57.37C650.769 53.2167 656.486 51.14 663.859 51.14C667.919 51.14 671.559 51.84 674.779 53.24C678.046 54.5933 680.612 56.6933 682.479 59.54C684.392 62.34 685.349 65.77 685.349 69.83H674.919C674.919 66.7033 673.916 64.2533 671.909 62.48C669.902 60.66 667.289 59.75 664.069 59.75C659.682 59.75 656.416 61.0567 654.269 63.67C652.122 66.2833 651.049 70.04 651.049 74.94V77.04C651.049 87.1667 655.389 92.23 664.069 92.23C667.476 92.23 670.182 91.3433 672.189 89.57C674.242 87.7967 675.269 85.3467 675.269 82.22H685.349C685.349 86.3267 684.416 89.78 682.549 92.58C680.682 95.3333 678.139 97.41 674.919 98.81C671.699 100.163 668.012 100.84 663.859 100.84ZM693.586 51.98H703.736V71.02H724.596V51.98H734.746V100H724.596V79.77H703.736V100H693.586V51.98ZM744.804 51.98H754.954V100H744.804V51.98ZM764.986 51.98H774.856L793.336 78.09C793.896 78.8833 794.83 80.4467 796.136 82.78L796.486 82.57L796.276 78.51V51.98H806.146V100H796.276L777.726 73.68C776.84 72.42 775.93 70.88 774.996 69.06L774.646 69.27C774.786 71.2767 774.856 72.6767 774.856 73.47V100H764.986V51.98ZM837.694 100.84C830.274 100.84 824.534 98.81 820.474 94.75C816.461 90.69 814.454 84.4367 814.454 75.99C814.454 67.73 816.601 61.5233 820.894 57.37C825.187 53.2167 831.254 51.14 839.094 51.14C843.247 51.14 847.027 51.7933 850.434 53.1C853.887 54.36 856.617 56.2967 858.624 58.91C860.677 61.4767 861.704 64.6267 861.704 68.36H851.204C851.204 65.7467 850.037 63.67 847.704 62.13C845.417 60.5433 842.664 59.75 839.444 59.75C834.544 59.75 830.881 61.0567 828.454 63.67C826.074 66.2833 824.884 70.04 824.884 74.94V77.04C824.884 82.1733 825.981 86 828.174 88.52C830.414 90.9933 833.821 92.23 838.394 92.23C842.174 92.23 845.301 91.3433 847.774 89.57C850.247 87.75 851.507 85.3 851.554 82.22H836.994V73.89H861.704V100H854.704L853.794 94.68C851.554 96.8267 849.197 98.39 846.724 99.37C844.251 100.35 841.241 100.84 837.694 100.84Z" fill="#F2C94C"/>
</g>
<path d="M578.694 51.98H588.844V100H578.694V51.98ZM610.496 60.73H595.656V51.98H635.486V60.73H620.646V100H610.496V60.73ZM663.859 100.84C648.366 100.84 640.619 92.5567 640.619 75.99C640.619 67.6833 642.649 61.4767 646.709 57.37C650.769 53.2167 656.486 51.14 663.859 51.14C667.919 51.14 671.559 51.84 674.779 53.24C678.046 54.5933 680.612 56.6933 682.479 59.54C684.392 62.34 685.349 65.77 685.349 69.83H674.919C674.919 66.7033 673.916 64.2533 671.909 62.48C669.902 60.66 667.289 59.75 664.069 59.75C659.682 59.75 656.416 61.0567 654.269 63.67C652.122 66.2833 651.049 70.04 651.049 74.94V77.04C651.049 87.1667 655.389 92.23 664.069 92.23C667.476 92.23 670.182 91.3433 672.189 89.57C674.242 87.7967 675.269 85.3467 675.269 82.22H685.349C685.349 86.3267 684.416 89.78 682.549 92.58C680.682 95.3333 678.139 97.41 674.919 98.81C671.699 100.163 668.012 100.84 663.859 100.84ZM693.586 51.98H703.736V71.02H724.596V51.98H734.746V100H724.596V79.77H703.736V100H693.586V51.98ZM744.804 51.98H754.954V100H744.804V51.98ZM764.986 51.98H774.856L793.336 78.09C793.896 78.8833 794.83 80.4467 796.136 82.78L796.486 82.57L796.276 78.51V51.98H806.146V100H796.276L777.726 73.68C776.84 72.42 775.93 70.88 774.996 69.06L774.646 69.27C774.786 71.2767 774.856 72.6767 774.856 73.47V100H764.986V51.98ZM837.694 100.84C830.274 100.84 824.534 98.81 820.474 94.75C816.461 90.69 814.454 84.4367 814.454 75.99C814.454 67.73 816.601 61.5233 820.894 57.37C825.187 53.2167 831.254 51.14 839.094 51.14C843.247 51.14 847.027 51.7933 850.434 53.1C853.887 54.36 856.617 56.2967 858.624 58.91C860.677 61.4767 861.704 64.6267 861.704 68.36H851.204C851.204 65.7467 850.037 63.67 847.704 62.13C845.417 60.5433 842.664 59.75 839.444 59.75C834.544 59.75 830.881 61.0567 828.454 63.67C826.074 66.2833 824.884 70.04 824.884 74.94V77.04C824.884 82.1733 825.981 86 828.174 88.52C830.414 90.9933 833.821 92.23 838.394 92.23C842.174 92.23 845.301 91.3433 847.774 89.57C850.247 87.75 851.507 85.3 851.554 82.22H836.994V73.89H861.704V100H854.704L853.794 94.68C851.554 96.8267 849.197 98.39 846.724 99.37C844.251 100.35 841.241 100.84 837.694 100.84Z" fill="#F2E14C"/>
<g filter="url(#filter2_i)">
<path d="M578.694 51.98H588.844V100H578.694V51.98ZM610.496 60.73H595.656V51.98H635.486V60.73H620.646V100H610.496V60.73ZM663.859 100.84C648.366 100.84 640.619 92.5567 640.619 75.99C640.619 67.6833 642.649 61.4767 646.709 57.37C650.769 53.2167 656.486 51.14 663.859 51.14C667.919 51.14 671.559 51.84 674.779 53.24C678.046 54.5933 680.612 56.6933 682.479 59.54C684.392 62.34 685.349 65.77 685.349 69.83H674.919C674.919 66.7033 673.916 64.2533 671.909 62.48C669.902 60.66 667.289 59.75 664.069 59.75C659.682 59.75 656.416 61.0567 654.269 63.67C652.122 66.2833 651.049 70.04 651.049 74.94V77.04C651.049 87.1667 655.389 92.23 664.069 92.23C667.476 92.23 670.182 91.3433 672.189 89.57C674.242 87.7967 675.269 85.3467 675.269 82.22H685.349C685.349 86.3267 684.416 89.78 682.549 92.58C680.682 95.3333 678.139 97.41 674.919 98.81C671.699 100.163 668.012 100.84 663.859 100.84ZM693.586 51.98H703.736V71.02H724.596V51.98H734.746V100H724.596V79.77H703.736V100H693.586V51.98ZM744.804 51.98H754.954V100H744.804V51.98ZM764.986 51.98H774.856L793.336 78.09C793.896 78.8833 794.83 80.4467 796.136 82.78L796.486 82.57L796.276 78.51V51.98H806.146V100H796.276L777.726 73.68C776.84 72.42 775.93 70.88 774.996 69.06L774.646 69.27C774.786 71.2767 774.856 72.6767 774.856 73.47V100H764.986V51.98ZM837.694 100.84C830.274 100.84 824.534 98.81 820.474 94.75C816.461 90.69 814.454 84.4367 814.454 75.99C814.454 67.73 816.601 61.5233 820.894 57.37C825.187 53.2167 831.254 51.14 839.094 51.14C843.247 51.14 847.027 51.7933 850.434 53.1C853.887 54.36 856.617 56.2967 858.624 58.91C860.677 61.4767 861.704 64.6267 861.704 68.36H851.204C851.204 65.7467 850.037 63.67 847.704 62.13C845.417 60.5433 842.664 59.75 839.444 59.75C834.544 59.75 830.881 61.0567 828.454 63.67C826.074 66.2833 824.884 70.04 824.884 74.94V77.04C824.884 82.1733 825.981 86 828.174 88.52C830.414 90.9933 833.821 92.23 838.394 92.23C842.174 92.23 845.301 91.3433 847.774 89.57C850.247 87.75 851.507 85.3 851.554 82.22H836.994V73.89H861.704V100H854.704L853.794 94.68C851.554 96.8267 849.197 98.39 846.724 99.37C844.251 100.35 841.241 100.84 837.694 100.84Z" fill="#F2C94C"/>
</g>
<defs>
<filter id="filter0_f" x="571.693" y="44.1399" width="297.011" height="63.7" filterUnits="userSpaceOnUse" color-interpolation-filters="sRGB">
<feFlood flood-opacity="0" result="BackgroundImageFix"/>
<feBlend mode="normal" in="SourceGraphic" in2="BackgroundImageFix" result="shape"/>
<feGaussianBlur stdDeviation="3.5" result="effect1_foregroundBlur"/>
</filter>
<filter id="filter1_f" x="575.693" y="48.1399" width="289.011" height="55.7" filterUnits="userSpaceOnUse" color-interpolation-filters="sRGB">
<feFlood flood-opacity="0" result="BackgroundImageFix"/>
<feBlend mode="normal" in="SourceGraphic" in2="BackgroundImageFix" result="shape"/>
<feGaussianBlur stdDeviation="1.5" result="effect1_foregroundBlur"/>
</filter>
<filter id="filter2_i" x="578.493" y="51.1399" width="283.211" height="49.9" filterUnits="userSpaceOnUse" color-interpolation-filters="sRGB">
<feFlood flood-opacity="0" result="BackgroundImageFix"/>
<feBlend mode="normal" in="SourceGraphic" in2="BackgroundImageFix" result="shape"/>
<feColorMatrix in="SourceAlpha" type="matrix" values="0 0 0 0 0 0 0 0 0 0 0 0 0 0 0 0 0 0 127 0" result="hardAlpha"/>
<feOffset dx="-0.2" dy="0.2"/>
<feGaussianBlur stdDeviation="1"/>
<feComposite in2="hardAlpha" operator="arithmetic" k2="-1" k3="1"/>
<feColorMatrix type="matrix" values="0 0 0 0 0.483784 0 0 0 0 0.735135 0 0 0 0 0.916216 0 0 0 1 0"/>
<feBlend mode="screen" in2="shape" result="effect1_innerShadow"/>
</filter>
</defs>
</svg>
