<svg width="1440" height="159" viewBox="0 0 1440 159" fill="none" xmlns="http://www.w3.org/2000/svg">
<rect width="1447" height="159" fill="#0F0F0F"/>
<path d="M688.438 62.73H673.598V53.98H713.428V62.73H698.588V102H688.438V62.73ZM741.62 102.84C733.92 102.84 727.947 100.787 723.7 96.68C719.453 92.5267 717.33 86.2967 717.33 77.99C717.33 69.6833 719.453 63.4767 723.7 59.37C727.947 55.2167 733.92 53.14 741.62 53.14C749.367 53.14 755.363 55.2167 759.61 59.37C763.857 63.4767 765.98 69.6833 765.98 77.99C765.98 86.2967 763.857 92.5267 759.61 96.68C755.363 100.787 749.367 102.84 741.62 102.84ZM741.62 94.23C746.193 94.23 749.647 92.9233 751.98 90.31C754.36 87.65 755.55 83.8933 755.55 79.04V76.94C755.55 72.0867 754.36 68.3533 751.98 65.74C749.647 63.08 746.193 61.75 741.62 61.75C737.047 61.75 733.593 63.08 731.26 65.74C728.927 68.3533 727.76 72.0867 727.76 76.94V79.04C727.76 83.8933 728.927 87.65 731.26 90.31C733.593 92.9233 737.047 94.23 741.62 94.23Z" fill="#333333"/>
</svg>
