<svg width="149" height="50" viewBox="0 0 149 50" fill="none" xmlns="http://www.w3.org/2000/svg">
<path d="M18.7953 29.61L0.455276 0.979997H12.0053L23.9753 20.58H24.3253L36.1553 0.979997H47.1453L28.9453 29.61V49H18.7953V29.61ZM75.0747 49.84C67.3747 49.84 61.4014 47.7867 57.1547 43.68C52.9081 39.5267 50.7847 33.2967 50.7847 24.99C50.7847 16.6833 52.9081 10.4767 57.1547 6.37C61.4014 2.21667 67.3747 0.139999 75.0747 0.139999C82.8214 0.139999 88.8181 2.21667 93.0647 6.37C97.3114 10.4767 99.4347 16.6833 99.4347 24.99C99.4347 33.2967 97.3114 39.5267 93.0647 43.68C88.8181 47.7867 82.8214 49.84 75.0747 49.84ZM75.0747 41.23C79.6481 41.23 83.1014 39.9233 85.4347 37.31C87.8147 34.65 89.0047 30.8933 89.0047 26.04V23.94C89.0047 19.0867 87.8147 15.3533 85.4347 12.74C83.1014 10.08 79.6481 8.75 75.0747 8.75C70.5014 8.75 67.0481 10.08 64.7147 12.74C62.3814 15.3533 61.2147 19.0867 61.2147 23.94V26.04C61.2147 30.8933 62.3814 34.65 64.7147 37.31C67.0481 39.9233 70.5014 41.23 75.0747 41.23ZM128.227 49.84C121.74 49.84 116.7 48.2533 113.107 45.08C109.514 41.9067 107.717 37.2633 107.717 31.15V0.979997H117.867V30.66C117.867 34.1133 118.754 36.75 120.527 38.57C122.347 40.3433 124.914 41.23 128.227 41.23C131.54 41.23 134.107 40.3433 135.927 38.57C137.794 36.75 138.727 34.1133 138.727 30.66V0.979997H148.877V31.15C148.877 37.2633 147.057 41.9067 143.417 45.08C139.824 48.2533 134.76 49.84 128.227 49.84Z" fill="#333333"/>
</svg>
