<svg width="1440" height="159" viewBox="0 0 1440 159" fill="none" xmlns="http://www.w3.org/2000/svg">
<rect width="1447" height="159" fill="#0F0F0F"/>
<path d="M664.338 51.98H677.078L695.838 100H684.778L681.348 90.83H659.508L656.078 100H645.578L664.338 51.98ZM678.128 82.36L673.578 70.18C673.018 68.6867 672.014 65.5367 670.568 60.73H670.218C668.771 65.5367 667.768 68.6867 667.208 70.18L662.658 82.36H678.128ZM701.345 51.98H726.825C732.192 51.98 736.229 53.31 738.935 55.97C741.642 58.5833 742.995 62.27 742.995 67.03C742.995 73.75 740.195 78.23 734.595 80.47L744.395 100H733.405L724.935 82.08H711.495V100H701.345V51.98ZM725.915 73.61C728.109 73.61 729.789 73.0267 730.955 71.86C732.122 70.6933 732.705 69.0833 732.705 67.03C732.705 64.9767 732.122 63.39 730.955 62.27C729.789 61.15 728.109 60.59 725.915 60.59H711.495V73.61H725.915ZM752.563 51.98H790.293V60.59H762.713V71.16H787.213V79.77H762.713V91.39H790.713V100H752.563V51.98Z" fill="#333333"/>
</svg>
