<svg width="146" height="49" viewBox="0 0 146 49" fill="none" xmlns="http://www.w3.org/2000/svg">
<path d="M19.3377 0.979997H32.0777L50.8377 49H39.7777L36.3477 39.83H14.5077L11.0777 49H0.577698L19.3377 0.979997ZM33.1277 31.36L28.5777 19.18C28.0177 17.6867 27.0144 14.5367 25.5677 9.73H25.2177C23.771 14.5367 22.7677 17.6867 22.2077 19.18L17.6577 31.36H33.1277ZM56.3453 0.979997H81.8253C87.1919 0.979997 91.2286 2.31 93.9353 4.97C96.6419 7.58333 97.9953 11.27 97.9953 16.03C97.9953 22.75 95.1953 27.23 89.5953 29.47L99.3953 49H88.4053L79.9353 31.08H66.4953V49H56.3453V0.979997ZM80.9153 22.61C83.1086 22.61 84.7886 22.0267 85.9553 20.86C87.1219 19.6933 87.7053 18.0833 87.7053 16.03C87.7053 13.9767 87.1219 12.39 85.9553 11.27C84.7886 10.15 83.1086 9.59 80.9153 9.59H66.4953V22.61H80.9153ZM107.563 0.979997H145.293V9.59H117.713V20.16H142.213V28.77H117.713V40.39H145.713V49H107.563V0.979997Z" fill="#333333"/>
</svg>
