<svg width="1440" height="159" viewBox="0 0 1440 159" fill="none" xmlns="http://www.w3.org/2000/svg">
<g opacity="0.6" filter="url(#filter0_f)">
<path d="M592.763 54.98H620.273C622.793 54.98 625.08 55.4933 627.133 56.52C629.186 57.5 630.796 58.9 631.963 60.72C633.13 62.4933 633.713 64.5467 633.713 66.88C633.713 69.54 632.966 71.85 631.473 73.81C630.026 75.7233 628.16 77.0533 625.873 77.8V78.08C628.58 78.5933 630.773 79.9233 632.453 82.07C634.18 84.17 635.043 86.6667 635.043 89.56C635.043 93.9 633.643 97.2367 630.843 99.57C628.09 101.857 624.566 103 620.273 103H592.763V54.98ZM617.403 74.16C619.27 74.16 620.716 73.6933 621.743 72.76C622.77 71.78 623.283 70.5433 623.283 69.05C623.283 67.2767 622.793 65.9233 621.813 64.99C620.88 64.0567 619.573 63.59 617.893 63.59H602.983V74.16H617.403ZM618.593 94.39C620.366 94.39 621.813 93.8767 622.933 92.85C624.053 91.8233 624.613 90.3533 624.613 88.44C624.613 86.7133 624.053 85.3133 622.933 84.24C621.813 83.1667 620.18 82.63 618.033 82.63H602.983V94.39H618.593ZM643.98 54.98H654.13V103H643.98V54.98ZM664.163 54.98H674.313V103H664.163V54.98ZM684.345 54.98H694.495V103H684.345V54.98ZM704.528 54.98H714.398L732.878 81.09C733.438 81.8833 734.371 83.4467 735.678 85.78L736.028 85.57L735.818 81.51V54.98H745.688V103H735.818L717.268 76.68C716.381 75.42 715.471 73.88 714.538 72.06L714.188 72.27C714.328 74.2767 714.398 75.6767 714.398 76.47V103H704.528V54.98ZM777.235 103.84C769.815 103.84 764.075 101.81 760.015 97.75C756.002 93.69 753.995 87.4367 753.995 78.99C753.995 70.73 756.142 64.5233 760.435 60.37C764.729 56.2167 770.795 54.14 778.635 54.14C782.789 54.14 786.569 54.7933 789.975 56.1C793.429 57.36 796.159 59.2967 798.165 61.91C800.219 64.4767 801.245 67.6267 801.245 71.36H790.745C790.745 68.7467 789.579 66.67 787.245 65.13C784.959 63.5433 782.205 62.75 778.985 62.75C774.085 62.75 770.422 64.0567 767.995 66.67C765.615 69.2833 764.425 73.04 764.425 77.94V80.04C764.425 85.1733 765.522 89 767.715 91.52C769.955 93.9933 773.362 95.23 777.935 95.23C781.715 95.23 784.842 94.3433 787.315 92.57C789.789 90.75 791.049 88.3 791.095 85.22H776.535V76.89H801.245V103H794.245L793.335 97.68C791.095 99.8267 788.739 101.39 786.265 102.37C783.792 103.35 780.782 103.84 777.235 103.84ZM810.928 54.98H848.658V63.59H821.078V74.16H845.578V82.77H821.078V94.39H849.078V103H810.928V54.98Z" fill="#409DE0"/>
</g>
<g opacity="0.6" filter="url(#filter1_f)">
<path d="M592.763 54.98H620.273C622.793 54.98 625.08 55.4933 627.133 56.52C629.186 57.5 630.796 58.9 631.963 60.72C633.13 62.4933 633.713 64.5467 633.713 66.88C633.713 69.54 632.966 71.85 631.473 73.81C630.026 75.7233 628.16 77.0533 625.873 77.8V78.08C628.58 78.5933 630.773 79.9233 632.453 82.07C634.18 84.17 635.043 86.6667 635.043 89.56C635.043 93.9 633.643 97.2367 630.843 99.57C628.09 101.857 624.566 103 620.273 103H592.763V54.98ZM617.403 74.16C619.27 74.16 620.716 73.6933 621.743 72.76C622.77 71.78 623.283 70.5433 623.283 69.05C623.283 67.2767 622.793 65.9233 621.813 64.99C620.88 64.0567 619.573 63.59 617.893 63.59H602.983V74.16H617.403ZM618.593 94.39C620.366 94.39 621.813 93.8767 622.933 92.85C624.053 91.8233 624.613 90.3533 624.613 88.44C624.613 86.7133 624.053 85.3133 622.933 84.24C621.813 83.1667 620.18 82.63 618.033 82.63H602.983V94.39H618.593ZM643.98 54.98H654.13V103H643.98V54.98ZM664.163 54.98H674.313V103H664.163V54.98ZM684.345 54.98H694.495V103H684.345V54.98ZM704.528 54.98H714.398L732.878 81.09C733.438 81.8833 734.371 83.4467 735.678 85.78L736.028 85.57L735.818 81.51V54.98H745.688V103H735.818L717.268 76.68C716.381 75.42 715.471 73.88 714.538 72.06L714.188 72.27C714.328 74.2767 714.398 75.6767 714.398 76.47V103H704.528V54.98ZM777.235 103.84C769.815 103.84 764.075 101.81 760.015 97.75C756.002 93.69 753.995 87.4367 753.995 78.99C753.995 70.73 756.142 64.5233 760.435 60.37C764.729 56.2167 770.795 54.14 778.635 54.14C782.789 54.14 786.569 54.7933 789.975 56.1C793.429 57.36 796.159 59.2967 798.165 61.91C800.219 64.4767 801.245 67.6267 801.245 71.36H790.745C790.745 68.7467 789.579 66.67 787.245 65.13C784.959 63.5433 782.205 62.75 778.985 62.75C774.085 62.75 770.422 64.0567 767.995 66.67C765.615 69.2833 764.425 73.04 764.425 77.94V80.04C764.425 85.1733 765.522 89 767.715 91.52C769.955 93.9933 773.362 95.23 777.935 95.23C781.715 95.23 784.842 94.3433 787.315 92.57C789.789 90.75 791.049 88.3 791.095 85.22H776.535V76.89H801.245V103H794.245L793.335 97.68C791.095 99.8267 788.739 101.39 786.265 102.37C783.792 103.35 780.782 103.84 777.235 103.84ZM810.928 54.98H848.658V63.59H821.078V74.16H845.578V82.77H821.078V94.39H849.078V103H810.928V54.98Z" fill="#409DE0"/>
</g>
<path d="M592.763 54.98H620.273C622.793 54.98 625.08 55.4933 627.133 56.52C629.186 57.5 630.796 58.9 631.963 60.72C633.13 62.4933 633.713 64.5467 633.713 66.88C633.713 69.54 632.966 71.85 631.473 73.81C630.026 75.7233 628.16 77.0533 625.873 77.8V78.08C628.58 78.5933 630.773 79.9233 632.453 82.07C634.18 84.17 635.043 86.6667 635.043 89.56C635.043 93.9 633.643 97.2367 630.843 99.57C628.09 101.857 624.566 103 620.273 103H592.763V54.98ZM617.403 74.16C619.27 74.16 620.716 73.6933 621.743 72.76C622.77 71.78 623.283 70.5433 623.283 69.05C623.283 67.2767 622.793 65.9233 621.813 64.99C620.88 64.0567 619.573 63.59 617.893 63.59H602.983V74.16H617.403ZM618.593 94.39C620.366 94.39 621.813 93.8767 622.933 92.85C624.053 91.8233 624.613 90.3533 624.613 88.44C624.613 86.7133 624.053 85.3133 622.933 84.24C621.813 83.1667 620.18 82.63 618.033 82.63H602.983V94.39H618.593ZM643.98 54.98H654.13V103H643.98V54.98ZM664.163 54.98H674.313V103H664.163V54.98ZM684.345 54.98H694.495V103H684.345V54.98ZM704.528 54.98H714.398L732.878 81.09C733.438 81.8833 734.371 83.4467 735.678 85.78L736.028 85.57L735.818 81.51V54.98H745.688V103H735.818L717.268 76.68C716.381 75.42 715.471 73.88 714.538 72.06L714.188 72.27C714.328 74.2767 714.398 75.6767 714.398 76.47V103H704.528V54.98ZM777.235 103.84C769.815 103.84 764.075 101.81 760.015 97.75C756.002 93.69 753.995 87.4367 753.995 78.99C753.995 70.73 756.142 64.5233 760.435 60.37C764.729 56.2167 770.795 54.14 778.635 54.14C782.789 54.14 786.569 54.7933 789.975 56.1C793.429 57.36 796.159 59.2967 798.165 61.91C800.219 64.4767 801.245 67.6267 801.245 71.36H790.745C790.745 68.7467 789.579 66.67 787.245 65.13C784.959 63.5433 782.205 62.75 778.985 62.75C774.085 62.75 770.422 64.0567 767.995 66.67C765.615 69.2833 764.425 73.04 764.425 77.94V80.04C764.425 85.1733 765.522 89 767.715 91.52C769.955 93.9933 773.362 95.23 777.935 95.23C781.715 95.23 784.842 94.3433 787.315 92.57C789.789 90.75 791.049 88.3 791.095 85.22H776.535V76.89H801.245V103H794.245L793.335 97.68C791.095 99.8267 788.739 101.39 786.265 102.37C783.792 103.35 780.782 103.84 777.235 103.84ZM810.928 54.98H848.658V63.59H821.078V74.16H845.578V82.77H821.078V94.39H849.078V103H810.928V54.98Z" fill="#409DE0"/>
<g filter="url(#filter2_i)">
<path d="M592.763 54.98H620.273C622.793 54.98 625.08 55.4933 627.133 56.52C629.186 57.5 630.796 58.9 631.963 60.72C633.13 62.4933 633.713 64.5467 633.713 66.88C633.713 69.54 632.966 71.85 631.473 73.81C630.026 75.7233 628.16 77.0533 625.873 77.8V78.08C628.58 78.5933 630.773 79.9233 632.453 82.07C634.18 84.17 635.043 86.6667 635.043 89.56C635.043 93.9 633.643 97.2367 630.843 99.57C628.09 101.857 624.566 103 620.273 103H592.763V54.98ZM617.403 74.16C619.27 74.16 620.716 73.6933 621.743 72.76C622.77 71.78 623.283 70.5433 623.283 69.05C623.283 67.2767 622.793 65.9233 621.813 64.99C620.88 64.0567 619.573 63.59 617.893 63.59H602.983V74.16H617.403ZM618.593 94.39C620.366 94.39 621.813 93.8767 622.933 92.85C624.053 91.8233 624.613 90.3533 624.613 88.44C624.613 86.7133 624.053 85.3133 622.933 84.24C621.813 83.1667 620.18 82.63 618.033 82.63H602.983V94.39H618.593ZM643.98 54.98H654.13V103H643.98V54.98ZM664.163 54.98H674.313V103H664.163V54.98ZM684.345 54.98H694.495V103H684.345V54.98ZM704.528 54.98H714.398L732.878 81.09C733.438 81.8833 734.371 83.4467 735.678 85.78L736.028 85.57L735.818 81.51V54.98H745.688V103H735.818L717.268 76.68C716.381 75.42 715.471 73.88 714.538 72.06L714.188 72.27C714.328 74.2767 714.398 75.6767 714.398 76.47V103H704.528V54.98ZM777.235 103.84C769.815 103.84 764.075 101.81 760.015 97.75C756.002 93.69 753.995 87.4367 753.995 78.99C753.995 70.73 756.142 64.5233 760.435 60.37C764.729 56.2167 770.795 54.14 778.635 54.14C782.789 54.14 786.569 54.7933 789.975 56.1C793.429 57.36 796.159 59.2967 798.165 61.91C800.219 64.4767 801.245 67.6267 801.245 71.36H790.745C790.745 68.7467 789.579 66.67 787.245 65.13C784.959 63.5433 782.205 62.75 778.985 62.75C774.085 62.75 770.422 64.0567 767.995 66.67C765.615 69.2833 764.425 73.04 764.425 77.94V80.04C764.425 85.1733 765.522 89 767.715 91.52C769.955 93.9933 773.362 95.23 777.935 95.23C781.715 95.23 784.842 94.3433 787.315 92.57C789.789 90.75 791.049 88.3 791.095 85.22H776.535V76.89H801.245V103H794.245L793.335 97.68C791.095 99.8267 788.739 101.39 786.265 102.37C783.792 103.35 780.782 103.84 777.235 103.84ZM810.928 54.98H848.658V63.59H821.078V74.16H845.578V82.77H821.078V94.39H849.078V103H810.928V54.98Z" fill="#409DE0"/>
</g>
<defs>
<filter id="filter0_f" x="582.763" y="44.1401" width="276.315" height="69.7" filterUnits="userSpaceOnUse" color-interpolation-filters="sRGB">
<feFlood flood-opacity="0" result="BackgroundImageFix"/>
<feBlend mode="normal" in="SourceGraphic" in2="BackgroundImageFix" result="shape"/>
<feGaussianBlur stdDeviation="5" result="effect1_foregroundBlur"/>
</filter>
<filter id="filter1_f" x="588.763" y="50.1401" width="264.315" height="57.7" filterUnits="userSpaceOnUse" color-interpolation-filters="sRGB">
<feFlood flood-opacity="0" result="BackgroundImageFix"/>
<feBlend mode="normal" in="SourceGraphic" in2="BackgroundImageFix" result="shape"/>
<feGaussianBlur stdDeviation="2" result="effect1_foregroundBlur"/>
</filter>
<filter id="filter2_i" x="592.263" y="54.1401" width="256.815" height="50.2" filterUnits="userSpaceOnUse" color-interpolation-filters="sRGB">
<feFlood flood-opacity="0" result="BackgroundImageFix"/>
<feBlend mode="normal" in="SourceGraphic" in2="BackgroundImageFix" result="shape"/>
<feColorMatrix in="SourceAlpha" type="matrix" values="0 0 0 0 0 0 0 0 0 0 0 0 0 0 0 0 0 0 127 0" result="hardAlpha"/>
<feOffset dx="-0.5" dy="0.5"/>
<feGaussianBlur stdDeviation="1"/>
<feComposite in2="hardAlpha" operator="arithmetic" k2="-1" k3="1"/>
<feColorMatrix type="matrix" values="0 0 0 0 0.483784 0 0 0 0 0.735135 0 0 0 0 0.916216 0 0 0 1 0"/>
<feBlend mode="screen" in2="shape" result="effect1_innerShadow"/>
</filter>
</defs>
</svg>
