<svg width="298" height="64" viewBox="0 0 298 64" fill="none" xmlns="http://www.w3.org/2000/svg">
<g opacity="0.6" filter="url(#filter0_f)">
<path d="M7.69351 7.98H17.8435V56H7.69351V7.98ZM39.4959 16.73H24.6559V7.98H64.4859V16.73H49.6459V56H39.4959V16.73ZM92.8589 56.84C77.3656 56.84 69.6189 48.5567 69.6189 31.99C69.6189 23.6833 71.6489 17.4767 75.7089 13.37C79.7689 9.21667 85.4856 7.14 92.8589 7.14C96.9189 7.14 100.559 7.84 103.779 9.24C107.046 10.5933 109.612 12.6933 111.479 15.54C113.392 18.34 114.349 21.77 114.349 25.83H103.919C103.919 22.7033 102.916 20.2533 100.909 18.48C98.9022 16.66 96.2889 15.75 93.0689 15.75C88.6822 15.75 85.4156 17.0567 83.2689 19.67C81.1222 22.2833 80.0489 26.04 80.0489 30.94V33.04C80.0489 43.1667 84.3889 48.23 93.0689 48.23C96.4756 48.23 99.1822 47.3433 101.189 45.57C103.242 43.7967 104.269 41.3467 104.269 38.22H114.349C114.349 42.3267 113.416 45.78 111.549 48.58C109.682 51.3333 107.139 53.41 103.919 54.81C100.699 56.1633 97.0122 56.84 92.8589 56.84ZM122.586 7.98H132.736V27.02H153.596V7.98H163.746V56H153.596V35.77H132.736V56H122.586V7.98ZM173.804 7.98H183.954V56H173.804V7.98ZM193.986 7.98H203.856L222.336 34.09C222.896 34.8833 223.83 36.4467 225.136 38.78L225.486 38.57L225.276 34.51V7.98H235.146V56H225.276L206.726 29.68C205.84 28.42 204.93 26.88 203.996 25.06L203.646 25.27C203.786 27.2767 203.856 28.6767 203.856 29.47V56H193.986V7.98ZM266.694 56.84C259.274 56.84 253.534 54.81 249.474 50.75C245.461 46.69 243.454 40.4367 243.454 31.99C243.454 23.73 245.601 17.5233 249.894 13.37C254.187 9.21667 260.254 7.14 268.094 7.14C272.247 7.14 276.027 7.79333 279.434 9.1C282.887 10.36 285.617 12.2967 287.624 14.91C289.677 17.4767 290.704 20.6267 290.704 24.36H280.204C280.204 21.7467 279.037 19.67 276.704 18.13C274.417 16.5433 271.664 15.75 268.444 15.75C263.544 15.75 259.881 17.0567 257.454 19.67C255.074 22.2833 253.884 26.04 253.884 30.94V33.04C253.884 38.1733 254.981 42 257.174 44.52C259.414 46.9933 262.821 48.23 267.394 48.23C271.174 48.23 274.301 47.3433 276.774 45.57C279.247 43.75 280.507 41.3 280.554 38.22H265.994V29.89H290.704V56H283.704L282.794 50.68C280.554 52.8267 278.197 54.39 275.724 55.37C273.251 56.35 270.241 56.84 266.694 56.84Z" fill="#F2C94C"/>
</g>
<g opacity="0.6" filter="url(#filter1_f)">
<path d="M7.69351 7.98H17.8435V56H7.69351V7.98ZM39.4959 16.73H24.6559V7.98H64.4859V16.73H49.6459V56H39.4959V16.73ZM92.8589 56.84C77.3656 56.84 69.6189 48.5567 69.6189 31.99C69.6189 23.6833 71.6489 17.4767 75.7089 13.37C79.7689 9.21667 85.4856 7.14 92.8589 7.14C96.9189 7.14 100.559 7.84 103.779 9.24C107.046 10.5933 109.612 12.6933 111.479 15.54C113.392 18.34 114.349 21.77 114.349 25.83H103.919C103.919 22.7033 102.916 20.2533 100.909 18.48C98.9022 16.66 96.2889 15.75 93.0689 15.75C88.6822 15.75 85.4156 17.0567 83.2689 19.67C81.1222 22.2833 80.0489 26.04 80.0489 30.94V33.04C80.0489 43.1667 84.3889 48.23 93.0689 48.23C96.4756 48.23 99.1822 47.3433 101.189 45.57C103.242 43.7967 104.269 41.3467 104.269 38.22H114.349C114.349 42.3267 113.416 45.78 111.549 48.58C109.682 51.3333 107.139 53.41 103.919 54.81C100.699 56.1633 97.0122 56.84 92.8589 56.84ZM122.586 7.98H132.736V27.02H153.596V7.98H163.746V56H153.596V35.77H132.736V56H122.586V7.98ZM173.804 7.98H183.954V56H173.804V7.98ZM193.986 7.98H203.856L222.336 34.09C222.896 34.8833 223.83 36.4467 225.136 38.78L225.486 38.57L225.276 34.51V7.98H235.146V56H225.276L206.726 29.68C205.84 28.42 204.93 26.88 203.996 25.06L203.646 25.27C203.786 27.2767 203.856 28.6767 203.856 29.47V56H193.986V7.98ZM266.694 56.84C259.274 56.84 253.534 54.81 249.474 50.75C245.461 46.69 243.454 40.4367 243.454 31.99C243.454 23.73 245.601 17.5233 249.894 13.37C254.187 9.21667 260.254 7.14 268.094 7.14C272.247 7.14 276.027 7.79333 279.434 9.1C282.887 10.36 285.617 12.2967 287.624 14.91C289.677 17.4767 290.704 20.6267 290.704 24.36H280.204C280.204 21.7467 279.037 19.67 276.704 18.13C274.417 16.5433 271.664 15.75 268.444 15.75C263.544 15.75 259.881 17.0567 257.454 19.67C255.074 22.2833 253.884 26.04 253.884 30.94V33.04C253.884 38.1733 254.981 42 257.174 44.52C259.414 46.9933 262.821 48.23 267.394 48.23C271.174 48.23 274.301 47.3433 276.774 45.57C279.247 43.75 280.507 41.3 280.554 38.22H265.994V29.89H290.704V56H283.704L282.794 50.68C280.554 52.8267 278.197 54.39 275.724 55.37C273.251 56.35 270.241 56.84 266.694 56.84Z" fill="#F2C94C"/>
</g>
<path d="M7.69351 7.98H17.8435V56H7.69351V7.98ZM39.4959 16.73H24.6559V7.98H64.4859V16.73H49.6459V56H39.4959V16.73ZM92.8589 56.84C77.3656 56.84 69.6189 48.5567 69.6189 31.99C69.6189 23.6833 71.6489 17.4767 75.7089 13.37C79.7689 9.21667 85.4856 7.14 92.8589 7.14C96.9189 7.14 100.559 7.84 103.779 9.24C107.046 10.5933 109.612 12.6933 111.479 15.54C113.392 18.34 114.349 21.77 114.349 25.83H103.919C103.919 22.7033 102.916 20.2533 100.909 18.48C98.9022 16.66 96.2889 15.75 93.0689 15.75C88.6822 15.75 85.4156 17.0567 83.2689 19.67C81.1222 22.2833 80.0489 26.04 80.0489 30.94V33.04C80.0489 43.1667 84.3889 48.23 93.0689 48.23C96.4756 48.23 99.1822 47.3433 101.189 45.57C103.242 43.7967 104.269 41.3467 104.269 38.22H114.349C114.349 42.3267 113.416 45.78 111.549 48.58C109.682 51.3333 107.139 53.41 103.919 54.81C100.699 56.1633 97.0122 56.84 92.8589 56.84ZM122.586 7.98H132.736V27.02H153.596V7.98H163.746V56H153.596V35.77H132.736V56H122.586V7.98ZM173.804 7.98H183.954V56H173.804V7.98ZM193.986 7.98H203.856L222.336 34.09C222.896 34.8833 223.83 36.4467 225.136 38.78L225.486 38.57L225.276 34.51V7.98H235.146V56H225.276L206.726 29.68C205.84 28.42 204.93 26.88 203.996 25.06L203.646 25.27C203.786 27.2767 203.856 28.6767 203.856 29.47V56H193.986V7.98ZM266.694 56.84C259.274 56.84 253.534 54.81 249.474 50.75C245.461 46.69 243.454 40.4367 243.454 31.99C243.454 23.73 245.601 17.5233 249.894 13.37C254.187 9.21667 260.254 7.14 268.094 7.14C272.247 7.14 276.027 7.79333 279.434 9.1C282.887 10.36 285.617 12.2967 287.624 14.91C289.677 17.4767 290.704 20.6267 290.704 24.36H280.204C280.204 21.7467 279.037 19.67 276.704 18.13C274.417 16.5433 271.664 15.75 268.444 15.75C263.544 15.75 259.881 17.0567 257.454 19.67C255.074 22.2833 253.884 26.04 253.884 30.94V33.04C253.884 38.1733 254.981 42 257.174 44.52C259.414 46.9933 262.821 48.23 267.394 48.23C271.174 48.23 274.301 47.3433 276.774 45.57C279.247 43.75 280.507 41.3 280.554 38.22H265.994V29.89H290.704V56H283.704L282.794 50.68C280.554 52.8267 278.197 54.39 275.724 55.37C273.251 56.35 270.241 56.84 266.694 56.84Z" fill="#F2E14C"/>
<g filter="url(#filter2_i)">
<path d="M7.69351 7.98H17.8435V56H7.69351V7.98ZM39.4959 16.73H24.6559V7.98H64.4859V16.73H49.6459V56H39.4959V16.73ZM92.8589 56.84C77.3656 56.84 69.6189 48.5567 69.6189 31.99C69.6189 23.6833 71.6489 17.4767 75.7089 13.37C79.7689 9.21667 85.4856 7.14 92.8589 7.14C96.9189 7.14 100.559 7.84 103.779 9.24C107.046 10.5933 109.612 12.6933 111.479 15.54C113.392 18.34 114.349 21.77 114.349 25.83H103.919C103.919 22.7033 102.916 20.2533 100.909 18.48C98.9022 16.66 96.2889 15.75 93.0689 15.75C88.6822 15.75 85.4156 17.0567 83.2689 19.67C81.1222 22.2833 80.0489 26.04 80.0489 30.94V33.04C80.0489 43.1667 84.3889 48.23 93.0689 48.23C96.4756 48.23 99.1822 47.3433 101.189 45.57C103.242 43.7967 104.269 41.3467 104.269 38.22H114.349C114.349 42.3267 113.416 45.78 111.549 48.58C109.682 51.3333 107.139 53.41 103.919 54.81C100.699 56.1633 97.0122 56.84 92.8589 56.84ZM122.586 7.98H132.736V27.02H153.596V7.98H163.746V56H153.596V35.77H132.736V56H122.586V7.98ZM173.804 7.98H183.954V56H173.804V7.98ZM193.986 7.98H203.856L222.336 34.09C222.896 34.8833 223.83 36.4467 225.136 38.78L225.486 38.57L225.276 34.51V7.98H235.146V56H225.276L206.726 29.68C205.84 28.42 204.93 26.88 203.996 25.06L203.646 25.27C203.786 27.2767 203.856 28.6767 203.856 29.47V56H193.986V7.98ZM266.694 56.84C259.274 56.84 253.534 54.81 249.474 50.75C245.461 46.69 243.454 40.4367 243.454 31.99C243.454 23.73 245.601 17.5233 249.894 13.37C254.187 9.21667 260.254 7.14 268.094 7.14C272.247 7.14 276.027 7.79333 279.434 9.1C282.887 10.36 285.617 12.2967 287.624 14.91C289.677 17.4767 290.704 20.6267 290.704 24.36H280.204C280.204 21.7467 279.037 19.67 276.704 18.13C274.417 16.5433 271.664 15.75 268.444 15.75C263.544 15.75 259.881 17.0567 257.454 19.67C255.074 22.2833 253.884 26.04 253.884 30.94V33.04C253.884 38.1733 254.981 42 257.174 44.52C259.414 46.9933 262.821 48.23 267.394 48.23C271.174 48.23 274.301 47.3433 276.774 45.57C279.247 43.75 280.507 41.3 280.554 38.22H265.994V29.89H290.704V56H283.704L282.794 50.68C280.554 52.8267 278.197 54.39 275.724 55.37C273.251 56.35 270.241 56.84 266.694 56.84Z" fill="#F2C94C"/>
</g>
<defs>
<filter id="filter0_f" x="0.693359" y="0.139893" width="297.011" height="63.7" filterUnits="userSpaceOnUse" color-interpolation-filters="sRGB">
<feFlood flood-opacity="0" result="BackgroundImageFix"/>
<feBlend mode="normal" in="SourceGraphic" in2="BackgroundImageFix" result="shape"/>
<feGaussianBlur stdDeviation="3.5" result="effect1_foregroundBlur"/>
</filter>
<filter id="filter1_f" x="4.69336" y="4.13989" width="289.011" height="55.7" filterUnits="userSpaceOnUse" color-interpolation-filters="sRGB">
<feFlood flood-opacity="0" result="BackgroundImageFix"/>
<feBlend mode="normal" in="SourceGraphic" in2="BackgroundImageFix" result="shape"/>
<feGaussianBlur stdDeviation="1.5" result="effect1_foregroundBlur"/>
</filter>
<filter id="filter2_i" x="7.49336" y="7.13989" width="283.211" height="49.9" filterUnits="userSpaceOnUse" color-interpolation-filters="sRGB">
<feFlood flood-opacity="0" result="BackgroundImageFix"/>
<feBlend mode="normal" in="SourceGraphic" in2="BackgroundImageFix" result="shape"/>
<feColorMatrix in="SourceAlpha" type="matrix" values="0 0 0 0 0 0 0 0 0 0 0 0 0 0 0 0 0 0 127 0" result="hardAlpha"/>
<feOffset dx="-0.2" dy="0.2"/>
<feGaussianBlur stdDeviation="1"/>
<feComposite in2="hardAlpha" operator="arithmetic" k2="-1" k3="1"/>
<feColorMatrix type="matrix" values="0 0 0 0 0.483784 0 0 0 0 0.735135 0 0 0 0 0.916216 0 0 0 1 0"/>
<feBlend mode="screen" in2="shape" result="effect1_innerShadow"/>
</filter>
</defs>
</svg>
