<svg width="1440" height="159" viewBox="0 0 1440 159" fill="none" xmlns="http://www.w3.org/2000/svg">
<rect width="1447" height="159" fill="#0F0F0F"/>
<path d="M661.795 73.61L643.455 44.98H655.005L666.975 64.58H667.325L679.155 44.98H690.145L671.945 73.61V93H661.795V73.61ZM718.075 93.84C710.375 93.84 704.401 91.7867 700.155 87.68C695.908 83.5267 693.785 77.2967 693.785 68.99C693.785 60.6833 695.908 54.4767 700.155 50.37C704.401 46.2167 710.375 44.14 718.075 44.14C725.821 44.14 731.818 46.2167 736.065 50.37C740.311 54.4767 742.435 60.6833 742.435 68.99C742.435 77.2967 740.311 83.5267 736.065 87.68C731.818 91.7867 725.821 93.84 718.075 93.84ZM718.075 85.23C722.648 85.23 726.101 83.9233 728.435 81.31C730.815 78.65 732.005 74.8933 732.005 70.04V67.94C732.005 63.0867 730.815 59.3533 728.435 56.74C726.101 54.08 722.648 52.75 718.075 52.75C713.501 52.75 710.048 54.08 707.715 56.74C705.381 59.3533 704.215 63.0867 704.215 67.94V70.04C704.215 74.8933 705.381 78.65 707.715 81.31C710.048 83.9233 713.501 85.23 718.075 85.23ZM771.227 93.84C764.74 93.84 759.7 92.2533 756.107 89.08C752.514 85.9067 750.717 81.2633 750.717 75.15V44.98H760.867V74.66C760.867 78.1133 761.754 80.75 763.527 82.57C765.347 84.3433 767.914 85.23 771.227 85.23C774.54 85.23 777.107 84.3433 778.927 82.57C780.794 80.75 781.727 78.1133 781.727 74.66V44.98H791.877V75.15C791.877 81.2633 790.057 85.9067 786.417 89.08C782.824 92.2533 777.76 93.84 771.227 93.84Z" fill="#333333"/>
</svg>
