<svg width="93" height="50" viewBox="0 0 93 50" fill="none" xmlns="http://www.w3.org/2000/svg">
<path d="M15.4375 9.73H0.597541V0.979997H40.4275V9.73H25.5875V49H15.4375V9.73ZM68.62 49.84C60.92 49.84 54.9467 47.7867 50.7 43.68C46.4534 39.5267 44.33 33.2967 44.33 24.99C44.33 16.6833 46.4534 10.4767 50.7 6.37C54.9467 2.21667 60.92 0.139999 68.62 0.139999C76.3667 0.139999 82.3634 2.21667 86.61 6.37C90.8567 10.4767 92.98 16.6833 92.98 24.99C92.98 33.2967 90.8567 39.5267 86.61 43.68C82.3634 47.7867 76.3667 49.84 68.62 49.84ZM68.62 41.23C73.1934 41.23 76.6467 39.9233 78.98 37.31C81.36 34.65 82.55 30.8933 82.55 26.04V23.94C82.55 19.0867 81.36 15.3533 78.98 12.74C76.6467 10.08 73.1934 8.75 68.62 8.75C64.0467 8.75 60.5934 10.08 58.26 12.74C55.9267 15.3533 54.76 19.0867 54.76 23.94V26.04C54.76 30.8933 55.9267 34.65 58.26 37.31C60.5934 39.9233 64.0467 41.23 68.62 41.23Z" fill="#333333"/>
</svg>
