<svg width="278" height="70" viewBox="0 0 278 70" fill="none" xmlns="http://www.w3.org/2000/svg">
<g opacity="0.6" filter="url(#filter0_f)">
<path d="M10.7628 10.98H38.2728C40.7928 10.98 43.0795 11.4933 45.1328 12.52C47.1862 13.5 48.7962 14.9 49.9628 16.72C51.1295 18.4933 51.7128 20.5467 51.7128 22.88C51.7128 25.54 50.9662 27.85 49.4728 29.81C48.0262 31.7233 46.1595 33.0533 43.8728 33.8V34.08C46.5795 34.5933 48.7728 35.9233 50.4528 38.07C52.1795 40.17 53.0428 42.6667 53.0428 45.56C53.0428 49.9 51.6428 53.2367 48.8428 55.57C46.0895 57.8567 42.5662 59 38.2728 59H10.7628V10.98ZM35.4028 30.16C37.2695 30.16 38.7162 29.6933 39.7428 28.76C40.7695 27.78 41.2828 26.5433 41.2828 25.05C41.2828 23.2767 40.7928 21.9233 39.8128 20.99C38.8795 20.0567 37.5728 19.59 35.8928 19.59H20.9828V30.16H35.4028ZM36.5928 50.39C38.3662 50.39 39.8128 49.8767 40.9328 48.85C42.0528 47.8233 42.6128 46.3533 42.6128 44.44C42.6128 42.7133 42.0528 41.3133 40.9328 40.24C39.8128 39.1667 38.1795 38.63 36.0328 38.63H20.9828V50.39H36.5928ZM61.9804 10.98H72.1304V59H61.9804V10.98ZM82.1628 10.98H92.3128V59H82.1628V10.98ZM102.345 10.98H112.495V59H102.345V10.98ZM122.528 10.98H132.398L150.878 37.09C151.438 37.8833 152.371 39.4467 153.678 41.78L154.028 41.57L153.818 37.51V10.98H163.688V59H153.818L135.268 32.68C134.381 31.42 133.471 29.88 132.538 28.06L132.188 28.27C132.328 30.2767 132.398 31.6767 132.398 32.47V59H122.528V10.98ZM195.235 59.84C187.815 59.84 182.075 57.81 178.015 53.75C174.002 49.69 171.995 43.4367 171.995 34.99C171.995 26.73 174.142 20.5233 178.435 16.37C182.729 12.2167 188.795 10.14 196.635 10.14C200.789 10.14 204.569 10.7933 207.975 12.1C211.429 13.36 214.159 15.2967 216.165 17.91C218.219 20.4767 219.245 23.6267 219.245 27.36H208.745C208.745 24.7467 207.579 22.67 205.245 21.13C202.959 19.5433 200.205 18.75 196.985 18.75C192.085 18.75 188.422 20.0567 185.995 22.67C183.615 25.2833 182.425 29.04 182.425 33.94V36.04C182.425 41.1733 183.522 45 185.715 47.52C187.955 49.9933 191.362 51.23 195.935 51.23C199.715 51.23 202.842 50.3433 205.315 48.57C207.789 46.75 209.049 44.3 209.095 41.22H194.535V32.89H219.245V59H212.245L211.335 53.68C209.095 55.8267 206.739 57.39 204.265 58.37C201.792 59.35 198.782 59.84 195.235 59.84ZM228.928 10.98H266.658V19.59H239.078V30.16H263.578V38.77H239.078V50.39H267.078V59H228.928V10.98Z" fill="#409DE0"/>
</g>
<g opacity="0.6" filter="url(#filter1_f)">
<path d="M10.7628 10.98H38.2728C40.7928 10.98 43.0795 11.4933 45.1328 12.52C47.1862 13.5 48.7962 14.9 49.9628 16.72C51.1295 18.4933 51.7128 20.5467 51.7128 22.88C51.7128 25.54 50.9662 27.85 49.4728 29.81C48.0262 31.7233 46.1595 33.0533 43.8728 33.8V34.08C46.5795 34.5933 48.7728 35.9233 50.4528 38.07C52.1795 40.17 53.0428 42.6667 53.0428 45.56C53.0428 49.9 51.6428 53.2367 48.8428 55.57C46.0895 57.8567 42.5662 59 38.2728 59H10.7628V10.98ZM35.4028 30.16C37.2695 30.16 38.7162 29.6933 39.7428 28.76C40.7695 27.78 41.2828 26.5433 41.2828 25.05C41.2828 23.2767 40.7928 21.9233 39.8128 20.99C38.8795 20.0567 37.5728 19.59 35.8928 19.59H20.9828V30.16H35.4028ZM36.5928 50.39C38.3662 50.39 39.8128 49.8767 40.9328 48.85C42.0528 47.8233 42.6128 46.3533 42.6128 44.44C42.6128 42.7133 42.0528 41.3133 40.9328 40.24C39.8128 39.1667 38.1795 38.63 36.0328 38.63H20.9828V50.39H36.5928ZM61.9804 10.98H72.1304V59H61.9804V10.98ZM82.1628 10.98H92.3128V59H82.1628V10.98ZM102.345 10.98H112.495V59H102.345V10.98ZM122.528 10.98H132.398L150.878 37.09C151.438 37.8833 152.371 39.4467 153.678 41.78L154.028 41.57L153.818 37.51V10.98H163.688V59H153.818L135.268 32.68C134.381 31.42 133.471 29.88 132.538 28.06L132.188 28.27C132.328 30.2767 132.398 31.6767 132.398 32.47V59H122.528V10.98ZM195.235 59.84C187.815 59.84 182.075 57.81 178.015 53.75C174.002 49.69 171.995 43.4367 171.995 34.99C171.995 26.73 174.142 20.5233 178.435 16.37C182.729 12.2167 188.795 10.14 196.635 10.14C200.789 10.14 204.569 10.7933 207.975 12.1C211.429 13.36 214.159 15.2967 216.165 17.91C218.219 20.4767 219.245 23.6267 219.245 27.36H208.745C208.745 24.7467 207.579 22.67 205.245 21.13C202.959 19.5433 200.205 18.75 196.985 18.75C192.085 18.75 188.422 20.0567 185.995 22.67C183.615 25.2833 182.425 29.04 182.425 33.94V36.04C182.425 41.1733 183.522 45 185.715 47.52C187.955 49.9933 191.362 51.23 195.935 51.23C199.715 51.23 202.842 50.3433 205.315 48.57C207.789 46.75 209.049 44.3 209.095 41.22H194.535V32.89H219.245V59H212.245L211.335 53.68C209.095 55.8267 206.739 57.39 204.265 58.37C201.792 59.35 198.782 59.84 195.235 59.84ZM228.928 10.98H266.658V19.59H239.078V30.16H263.578V38.77H239.078V50.39H267.078V59H228.928V10.98Z" fill="#409DE0"/>
</g>
<path d="M10.7628 10.98H38.2728C40.7928 10.98 43.0795 11.4933 45.1328 12.52C47.1862 13.5 48.7962 14.9 49.9628 16.72C51.1295 18.4933 51.7128 20.5467 51.7128 22.88C51.7128 25.54 50.9662 27.85 49.4728 29.81C48.0262 31.7233 46.1595 33.0533 43.8728 33.8V34.08C46.5795 34.5933 48.7728 35.9233 50.4528 38.07C52.1795 40.17 53.0428 42.6667 53.0428 45.56C53.0428 49.9 51.6428 53.2367 48.8428 55.57C46.0895 57.8567 42.5662 59 38.2728 59H10.7628V10.98ZM35.4028 30.16C37.2695 30.16 38.7162 29.6933 39.7428 28.76C40.7695 27.78 41.2828 26.5433 41.2828 25.05C41.2828 23.2767 40.7928 21.9233 39.8128 20.99C38.8795 20.0567 37.5728 19.59 35.8928 19.59H20.9828V30.16H35.4028ZM36.5928 50.39C38.3662 50.39 39.8128 49.8767 40.9328 48.85C42.0528 47.8233 42.6128 46.3533 42.6128 44.44C42.6128 42.7133 42.0528 41.3133 40.9328 40.24C39.8128 39.1667 38.1795 38.63 36.0328 38.63H20.9828V50.39H36.5928ZM61.9804 10.98H72.1304V59H61.9804V10.98ZM82.1628 10.98H92.3128V59H82.1628V10.98ZM102.345 10.98H112.495V59H102.345V10.98ZM122.528 10.98H132.398L150.878 37.09C151.438 37.8833 152.371 39.4467 153.678 41.78L154.028 41.57L153.818 37.51V10.98H163.688V59H153.818L135.268 32.68C134.381 31.42 133.471 29.88 132.538 28.06L132.188 28.27C132.328 30.2767 132.398 31.6767 132.398 32.47V59H122.528V10.98ZM195.235 59.84C187.815 59.84 182.075 57.81 178.015 53.75C174.002 49.69 171.995 43.4367 171.995 34.99C171.995 26.73 174.142 20.5233 178.435 16.37C182.729 12.2167 188.795 10.14 196.635 10.14C200.789 10.14 204.569 10.7933 207.975 12.1C211.429 13.36 214.159 15.2967 216.165 17.91C218.219 20.4767 219.245 23.6267 219.245 27.36H208.745C208.745 24.7467 207.579 22.67 205.245 21.13C202.959 19.5433 200.205 18.75 196.985 18.75C192.085 18.75 188.422 20.0567 185.995 22.67C183.615 25.2833 182.425 29.04 182.425 33.94V36.04C182.425 41.1733 183.522 45 185.715 47.52C187.955 49.9933 191.362 51.23 195.935 51.23C199.715 51.23 202.842 50.3433 205.315 48.57C207.789 46.75 209.049 44.3 209.095 41.22H194.535V32.89H219.245V59H212.245L211.335 53.68C209.095 55.8267 206.739 57.39 204.265 58.37C201.792 59.35 198.782 59.84 195.235 59.84ZM228.928 10.98H266.658V19.59H239.078V30.16H263.578V38.77H239.078V50.39H267.078V59H228.928V10.98Z" fill="#409DE0"/>
<g filter="url(#filter2_i)">
<path d="M10.7628 10.98H38.2728C40.7928 10.98 43.0795 11.4933 45.1328 12.52C47.1862 13.5 48.7962 14.9 49.9628 16.72C51.1295 18.4933 51.7128 20.5467 51.7128 22.88C51.7128 25.54 50.9662 27.85 49.4728 29.81C48.0262 31.7233 46.1595 33.0533 43.8728 33.8V34.08C46.5795 34.5933 48.7728 35.9233 50.4528 38.07C52.1795 40.17 53.0428 42.6667 53.0428 45.56C53.0428 49.9 51.6428 53.2367 48.8428 55.57C46.0895 57.8567 42.5662 59 38.2728 59H10.7628V10.98ZM35.4028 30.16C37.2695 30.16 38.7162 29.6933 39.7428 28.76C40.7695 27.78 41.2828 26.5433 41.2828 25.05C41.2828 23.2767 40.7928 21.9233 39.8128 20.99C38.8795 20.0567 37.5728 19.59 35.8928 19.59H20.9828V30.16H35.4028ZM36.5928 50.39C38.3662 50.39 39.8128 49.8767 40.9328 48.85C42.0528 47.8233 42.6128 46.3533 42.6128 44.44C42.6128 42.7133 42.0528 41.3133 40.9328 40.24C39.8128 39.1667 38.1795 38.63 36.0328 38.63H20.9828V50.39H36.5928ZM61.9804 10.98H72.1304V59H61.9804V10.98ZM82.1628 10.98H92.3128V59H82.1628V10.98ZM102.345 10.98H112.495V59H102.345V10.98ZM122.528 10.98H132.398L150.878 37.09C151.438 37.8833 152.371 39.4467 153.678 41.78L154.028 41.57L153.818 37.51V10.98H163.688V59H153.818L135.268 32.68C134.381 31.42 133.471 29.88 132.538 28.06L132.188 28.27C132.328 30.2767 132.398 31.6767 132.398 32.47V59H122.528V10.98ZM195.235 59.84C187.815 59.84 182.075 57.81 178.015 53.75C174.002 49.69 171.995 43.4367 171.995 34.99C171.995 26.73 174.142 20.5233 178.435 16.37C182.729 12.2167 188.795 10.14 196.635 10.14C200.789 10.14 204.569 10.7933 207.975 12.1C211.429 13.36 214.159 15.2967 216.165 17.91C218.219 20.4767 219.245 23.6267 219.245 27.36H208.745C208.745 24.7467 207.579 22.67 205.245 21.13C202.959 19.5433 200.205 18.75 196.985 18.75C192.085 18.75 188.422 20.0567 185.995 22.67C183.615 25.2833 182.425 29.04 182.425 33.94V36.04C182.425 41.1733 183.522 45 185.715 47.52C187.955 49.9933 191.362 51.23 195.935 51.23C199.715 51.23 202.842 50.3433 205.315 48.57C207.789 46.75 209.049 44.3 209.095 41.22H194.535V32.89H219.245V59H212.245L211.335 53.68C209.095 55.8267 206.739 57.39 204.265 58.37C201.792 59.35 198.782 59.84 195.235 59.84ZM228.928 10.98H266.658V19.59H239.078V30.16H263.578V38.77H239.078V50.39H267.078V59H228.928V10.98Z" fill="#409DE0"/>
</g>
<defs>
<filter id="filter0_f" x="0.762695" y="0.140137" width="276.315" height="69.7" filterUnits="userSpaceOnUse" color-interpolation-filters="sRGB">
<feFlood flood-opacity="0" result="BackgroundImageFix"/>
<feBlend mode="normal" in="SourceGraphic" in2="BackgroundImageFix" result="shape"/>
<feGaussianBlur stdDeviation="5" result="effect1_foregroundBlur"/>
</filter>
<filter id="filter1_f" x="6.7627" y="6.14014" width="264.315" height="57.7" filterUnits="userSpaceOnUse" color-interpolation-filters="sRGB">
<feFlood flood-opacity="0" result="BackgroundImageFix"/>
<feBlend mode="normal" in="SourceGraphic" in2="BackgroundImageFix" result="shape"/>
<feGaussianBlur stdDeviation="2" result="effect1_foregroundBlur"/>
</filter>
<filter id="filter2_i" x="10.5627" y="10.1401" width="256.515" height="49.9" filterUnits="userSpaceOnUse" color-interpolation-filters="sRGB">
<feFlood flood-opacity="0" result="BackgroundImageFix"/>
<feBlend mode="normal" in="SourceGraphic" in2="BackgroundImageFix" result="shape"/>
<feColorMatrix in="SourceAlpha" type="matrix" values="0 0 0 0 0 0 0 0 0 0 0 0 0 0 0 0 0 0 127 0" result="hardAlpha"/>
<feOffset dx="-0.2" dy="0.2"/>
<feGaussianBlur stdDeviation="1"/>
<feComposite in2="hardAlpha" operator="arithmetic" k2="-1" k3="1"/>
<feColorMatrix type="matrix" values="0 0 0 0 0.483784 0 0 0 0 0.735135 0 0 0 0 0.916216 0 0 0 1 0"/>
<feBlend mode="screen" in2="shape" result="effect1_innerShadow"/>
</filter>
</defs>
</svg>
